<svg width="250" height="550" viewBox="0 0 250 550" fill="none" xmlns="http://www.w3.org/2000/svg">
<rect width="250" height="550" rx="15" fill="#64A7D2"/>
<path d="M137.962 98.432C137.942 97.582 137.842 96.762 137.662 95.972C136.922 91.282 134.422 86.022 131.862 81.622C136.352 84.022 141.692 86.342 146.402 86.902C147.202 87.052 148.032 87.122 148.872 87.112C155.572 86.992 160.912 81.462 160.792 74.752C160.672 68.052 155.142 62.712 148.432 62.832C147.582 62.852 146.762 62.952 145.972 63.132C141.282 63.872 136.032 66.372 131.622 68.932C134.022 64.442 136.342 59.102 136.902 54.392C137.052 53.592 137.122 52.762 137.112 51.922C136.992 45.222 131.462 39.882 124.752 40.002C118.052 40.122 112.712 45.652 112.832 52.362C112.852 53.212 112.952 54.032 113.132 54.822C113.872 59.512 116.372 64.762 118.932 69.162C114.442 66.762 109.102 64.442 104.392 63.882C103.592 63.732 102.762 63.662 101.922 63.672C95.222 63.792 89.882 69.322 90.002 76.032C90.122 82.732 95.652 88.072 102.362 87.952C103.212 87.932 104.032 87.832 104.822 87.652C109.512 86.912 114.772 84.412 119.172 81.852C116.772 86.342 114.452 91.682 113.892 96.402C113.742 97.202 113.672 98.032 113.682 98.872C113.802 105.572 119.332 110.912 126.042 110.792C132.742 110.672 138.082 105.132 137.962 98.432Z" fill="#A4E6F8"/>
<path d="M125.172 82.512C129.143 82.512 132.362 79.2929 132.362 75.322C132.362 71.351 129.143 68.132 125.172 68.132C121.201 68.132 117.982 71.351 117.982 75.322C117.982 79.2929 121.201 82.512 125.172 82.512Z" fill="#4E89A7"/>
</svg>
