<svg width="940" height="550" viewBox="0 0 940 550" fill="none" xmlns="http://www.w3.org/2000/svg">
<rect width="940" height="550" rx="15" fill="#64A7D2"/>
<path d="M0 15C0 6.71573 6.71573 0 15 0H925C933.284 0 940 6.71573 940 15V40H0V15Z" fill="#233041"/>
<g clip-path="url(#clip0_78_367)">
<path d="M847.438 24.875H842.438C841.526 24.874 840.652 24.5115 840.008 23.8671C839.363 23.2226 839.001 22.3489 839 21.4375V16.4375C839.001 15.5261 839.363 14.6524 840.008 14.0079C840.652 13.3635 841.526 13.001 842.438 13H847.438C848.349 13.001 849.223 13.3635 849.867 14.0079C850.512 14.6524 850.874 15.5261 850.875 16.4375V21.4375C850.874 22.3489 850.512 23.2226 849.867 23.8671C849.223 24.5115 848.349 24.874 847.438 24.875V24.875ZM842.438 14.875C842.023 14.875 841.626 15.0396 841.333 15.3326C841.04 15.6257 840.875 16.0231 840.875 16.4375V21.4375C840.875 21.8519 841.04 22.2493 841.333 22.5424C841.626 22.8354 842.023 23 842.438 23H847.438C847.852 23 848.249 22.8354 848.542 22.5424C848.835 22.2493 849 21.8519 849 21.4375V16.4375C849 16.0231 848.835 15.6257 848.542 15.3326C848.249 15.0396 847.852 14.875 847.438 14.875H842.438ZM854 24.5625V17.375C854 17.1264 853.901 16.8879 853.725 16.7121C853.55 16.5363 853.311 16.4375 853.062 16.4375C852.814 16.4375 852.575 16.5363 852.4 16.7121C852.224 16.8879 852.125 17.1264 852.125 17.375V24.5625C852.125 24.9769 851.96 25.3743 851.667 25.6674C851.374 25.9604 850.977 26.125 850.562 26.125H843.375C843.126 26.125 842.888 26.2238 842.712 26.3996C842.536 26.5754 842.438 26.8139 842.438 27.0625C842.438 27.3111 842.536 27.5496 842.712 27.7254C842.888 27.9012 843.126 28 843.375 28H850.562C851.474 27.999 852.348 27.6365 852.992 26.9921C853.637 26.3476 853.999 25.4739 854 24.5625Z" fill="white"/>
</g>
<g clip-path="url(#clip1_78_367)">
<path d="M911.826 20.5002L917.726 14.6011C918.092 14.2349 918.092 13.6411 917.726 13.2749C917.359 12.9087 916.766 12.9087 916.399 13.2749L910.5 19.1747L904.601 13.2749C904.235 12.9087 903.641 12.9087 903.275 13.2749C902.909 13.6411 902.909 14.2349 903.275 14.6011L909.175 20.5002L903.275 26.3994C902.909 26.7656 902.909 27.3594 903.275 27.7256C903.641 28.0918 904.235 28.0918 904.601 27.7256L910.5 21.8258L916.399 27.7256C916.766 28.0918 917.359 28.0918 917.726 27.7256C918.092 27.3593 918.092 26.7656 917.726 26.3994L911.826 20.5002Z" fill="white"/>
</g>
<path d="M789.062 21.4375H775.938C775.42 21.4375 775 21.0178 775 20.5C775 19.9822 775.42 19.5625 775.938 19.5625H789.062C789.58 19.5625 790 19.9822 790 20.5C790 21.0178 789.58 21.4375 789.062 21.4375Z" fill="white"/>
<defs>
<clipPath id="clip0_78_367">
<rect width="15" height="15" fill="white" transform="translate(839 13)"/>
</clipPath>
<clipPath id="clip1_78_367">
<rect width="15" height="15" fill="white" transform="translate(903 13)"/>
</clipPath>
</defs>
</svg>
