<svg width="485" height="559" viewBox="0 0 485 559" fill="none" xmlns="http://www.w3.org/2000/svg">
<path fill-rule="evenodd" clip-rule="evenodd" d="M42.3071 22C36.0871 26.71 35.0171 37.21 35.0171 37.21C36.4094 40.4221 38.4992 42.8937 40.9044 44.7955C29.5019 52.0764 6.88575 71.1845 9.29714 107.16C9.29714 107.16 25.0471 127.41 7.36715 136.09C7.36715 136.09 18.2971 141.23 25.0471 136.73L28.2571 144.12L37.5816 150.784C37.5794 151.76 37.7995 155.735 41.336 158.844C34.8658 161.696 19.7839 170.15 23.9471 185.64C25.4489 191.224 27.0797 195.546 28.7464 198.878L26.0171 200.03L21.6271 205.63C21.6271 205.63 21.6907 205.595 21.8166 205.541L5.73122 218.15C5.49372 218.189 5.25569 218.232 5.01714 218.28C5.01714 218.28 -6.55286 224.28 5.44714 301.85C10.9964 337.721 11.4133 356.363 11.6562 367.225C11.9386 379.853 11.986 381.969 19.5871 388.42C21.5264 390.066 23.1351 391.486 24.5107 392.7C28.362 396.099 30.3856 397.886 32.7168 398.495C35.2978 399.17 38.2559 398.402 44.4891 396.784L44.498 396.781C45.2837 396.577 46.1215 396.36 47.0171 396.13L65.4471 389.27L70.6128 387.902L68.4471 414.13L129.428 513.277C130.399 515.338 131.425 516.821 132.507 517.59C132.507 517.59 158.367 527.26 185.137 469.42C187.407 464.515 189.341 460.703 191.001 457.808L206.501 470.755C209.795 476.665 215.502 478.184 227.647 464.01C240.265 449.284 251.292 433.899 259.982 419.014C261.545 420.93 263.013 422.743 264.382 424.443L262.587 425.28L285.737 466L301.167 549.57C301.167 549.57 320.017 562.85 330.307 557.71C341.697 552.01 341.447 524.71 341.447 524.71L326.877 490L323.877 476.71L307.157 454.85L286.157 404.28L283.397 408.146C280.838 402.017 277.961 395.167 274.89 387.924C279.078 376.37 281.174 365.79 280.713 356.904C294.668 369.249 306.106 378.635 314.387 385.17L311.447 386.71L359.447 428.7L382.157 464.27L395.447 469.84C395.447 469.84 406.167 478.41 420.307 488.7C434.447 498.99 461.877 480.99 461.877 480.99L460.587 465.99C412.587 448.42 371.447 415.85 371.447 415.85L334.157 366.99L333.659 368.079C316.813 341.621 287.044 296.424 272.877 277.42C271.81 275.987 270.742 274.629 269.677 273.342L268.167 246.13L261.562 243.117C270.059 242.883 276.757 241.99 279.727 240.56C291.307 234.99 311.017 246.56 311.017 246.56C313.167 239.7 297.307 225.56 297.307 225.56C305.447 219.13 320.017 219.99 320.017 219.99C306.297 204.99 280.157 207.14 247.157 211.85C227.503 214.661 206.026 206.98 191.869 200.307L171.219 183.81C177.922 181.315 183.195 175.986 186.689 171.492C197.51 168.615 206.75 169.315 213.889 172.262C215.329 176.494 215.811 181.672 214.857 188.01C214.857 188.01 217.102 181.33 217.038 173.78C229.08 180.484 233.59 194.239 227.237 206.5C227.237 206.5 237.357 195.09 232.857 178.05C232.857 178.05 240.407 180.94 240.087 186.57C240.087 186.57 245.707 171.46 213.087 158.93C212.64 158.758 212.196 158.592 211.754 158.43C210.281 156.908 208.432 155.607 206.127 154.63C197.591 151.021 191.768 151.413 179.809 153.349C178.322 153.336 176.853 153.335 175.398 153.335H175.396H175.393H175.391H175.389H175.387H175.385H175.382H175.38H175.378H175.376H175.373H175.371H175.369H175.367H175.364H175.362H175.36H175.358H175.355H175.353C165.026 153.33 155.391 153.326 145.112 148.944C149.726 147.569 156.944 143.799 157.377 133.64C157.377 133.64 161.877 134.07 162.087 138.78C162.087 138.78 167.877 129.57 148.157 122.49C148.013 122.438 147.87 122.385 147.729 122.331C148.023 120.375 148.232 117.495 147.873 113.839C151.554 112.918 161.029 109.395 160.157 97.63C160.142 97.4286 160.123 97.2299 160.1 97.0336C160.938 91.7834 157.629 86.248 152.447 83.49C146.853 80.5124 138.812 70.6593 132.769 62.4885C131.011 59.5664 128.804 56.403 126.003 52.9258C124.971 51.4016 124.377 50.49 124.377 50.49L124.535 51.1403C124.061 50.575 123.572 50.0017 123.067 49.42C101.857 24.99 62.0171 33.13 62.0171 33.13L55.5871 40.63L47.2271 41.27C47.2271 41.27 47.0723 41.3377 46.7825 41.4759C42.2262 32.9915 42.3071 22 42.3071 22ZM160.1 97.0336C159.368 101.614 155.478 105.978 146.918 108.091C146.301 105.428 145.387 102.504 144.067 99.35C143.723 98.5271 143.414 97.721 143.137 96.9287C146.851 94.6805 150.615 91.6935 154.389 87.8234C157.423 90.1769 159.628 93.0979 160.1 97.0336ZM146.727 121.919C145.748 116.751 142.997 112.018 142.997 113.07C142.997 113.686 141.857 115.592 140.673 117.405C142.164 119.229 144.124 120.765 146.727 121.919ZM137.825 129.291L136.809 135.163L137.387 139.67C137.427 140.27 137.457 140.88 137.457 141.48L137.457 141.526L137.458 141.585L137.459 141.656V141.656C137.463 141.943 137.468 142.255 137.377 142.52C137.155 143.137 136.861 143.725 136.51 144.279C139.124 146.009 141.678 147.408 144.191 148.54C150.401 144.347 149.344 131.457 138.947 129.57C138.557 129.499 138.183 129.406 137.825 129.291ZM154.275 87.7352C152.206 89.4046 147.894 92.2097 141.87 92.6445C141.233 90.0513 140.831 87.5578 140.426 85.0433L140.426 85.042C140.17 83.4487 139.912 81.8469 139.592 80.206C140.544 80.6374 141.524 81.0658 142.516 81.4993C146.626 83.2958 150.939 85.1803 154.275 87.7352ZM121.236 158.74L128.222 159.555C127.688 155.763 127.541 152.335 127.521 149.943C127.276 149.978 127.039 149.998 126.813 149.999C125.045 152.968 123.179 155.881 121.236 158.74ZM128.858 149.629L128.84 149.634L128.893 149.767L128.858 149.629ZM132.111 160.009C131.365 158.016 130.694 155.941 130.091 153.797C130.724 155.688 131.545 157.836 132.59 160.064L132.111 160.009ZM170.785 183.463L165.127 178.944C168.357 178.319 171.857 177.197 175.647 175.48C176.198 175.231 176.745 174.99 177.289 174.758C176.813 177.427 175.289 181.04 170.785 183.463ZM41.6325 160.594C39.4913 167.22 35.5375 181.397 36.0523 194.382L31.3241 198.088C31.0538 198.092 30.7848 198.106 30.5171 198.13L29.3245 198.634C23.7677 182.147 30.3045 170.039 41.6325 160.594ZM178.054 258.66L173.447 247.42L164.853 239.1C164.114 240.274 163.263 241.346 162.287 242.28L163.577 258.14L169.594 262.785C170.919 261.151 172.411 259.783 174.167 259.15L174.185 259.145L174.212 259.136C174.24 259.127 174.268 259.117 174.296 259.108L174.296 259.108L174.297 259.108C174.384 259.079 174.47 259.05 174.557 259.03C175.686 258.7 176.876 258.664 178.054 258.66ZM59.0171 314.28L59.648 293.844L70.9742 304.198C69.7738 304.612 69.0871 304.85 69.0871 304.85L75.5171 314.17L76.3619 325.768C75.9543 325.817 75.7371 325.84 75.7371 325.84L75.5799 327.744L61.1671 335.7L55.1671 335.27L59.8771 333.56L56.4471 328.42L59.0171 314.28Z" fill="#354B63" fill-opacity="0.4"/>
<path d="M190.017 169.71C190.017 169.71 228.157 194.57 261.157 189.85C294.157 185.14 320.297 182.99 334.017 197.99C334.017 197.99 319.447 197.13 311.307 203.56C311.307 203.56 327.167 217.7 325.017 224.56C325.017 224.56 305.307 212.99 293.727 218.56C282.157 224.13 214.017 221.56 203.297 203.56L190.017 169.71Z" fill="#E2A286"/>
<path d="M157.017 139.28L238.017 203.99L282.167 224.13L284.307 262.71L240.587 281.99L208.877 277.71L187.447 225.42L160.447 199.28L157.017 139.28Z" fill="#EAB788"/>
<mask id="mask0_84_372" style="mask-type:luminance" maskUnits="userSpaceOnUse" x="157" y="139" width="128" height="143">
<path d="M157.017 139.28L238.017 203.99L282.167 224.13L284.307 262.71L240.587 281.99L208.877 277.71L187.447 225.42L160.447 199.28L157.017 139.28Z" fill="white"/>
</mask>
<g mask="url(#mask0_84_372)">
<path opacity="0.2" d="M165.527 201.35L196.477 223.14L230.847 272.29L196.607 297.53L170.177 240.41L165.527 201.35Z" fill="#60387C"/>
</g>
<path d="M19.0171 196.71L66.5871 159.42L131.297 136.28L157.007 139.28C157.007 139.28 173.297 177.42 183.147 187.28C183.147 187.28 186.147 210.85 176.287 220.28L177.577 236.14L202.007 255L200.717 291.86L93.1671 332.13L91.8771 288.85L86.3071 274.71L73.0171 270.42L64.4471 247.28L50.7371 217.71L19.0171 196.71Z" fill="#ECD8B8"/>
<mask id="mask1_84_372" style="mask-type:luminance" maskUnits="userSpaceOnUse" x="19" y="136" width="184" height="197">
<path d="M19.0171 196.71L66.5871 159.42L131.297 136.28L157.007 139.28C157.007 139.28 173.297 177.42 183.147 187.28C183.147 187.28 186.147 210.85 176.287 220.28L177.577 236.14L202.007 255L200.717 291.86L93.1671 332.13L91.8771 288.85L86.3071 274.71L73.0171 270.42L64.4471 247.28L50.7371 217.71L19.0171 196.71Z" fill="white"/>
</mask>
<g mask="url(#mask1_84_372)">
<path opacity="0.2" d="M7.87708 196.28C11.7871 193.96 15.8171 192.98 20.7371 192.42C39.5971 190.28 60.1971 218.55 66.1671 243.85C68.2271 252.59 70.3671 261.31 72.5671 269.98L61.0271 278.99L31.0271 242.99L4.87708 205.28L7.87708 196.28Z" fill="#60387C"/>
</g>
<mask id="mask2_84_372" style="mask-type:luminance" maskUnits="userSpaceOnUse" x="19" y="136" width="184" height="197">
<path d="M19.0171 196.71L66.5871 159.42L131.297 136.28L157.007 139.28C157.007 139.28 173.297 177.42 183.147 187.28C183.147 187.28 186.147 210.85 176.287 220.28L177.577 236.14L202.007 255L200.717 291.86L93.1671 332.13L91.8771 288.85L86.3071 274.71L73.0171 270.42L64.4471 247.28L50.7371 217.71L19.0171 196.71Z" fill="white"/>
</mask>
<g mask="url(#mask2_84_372)">
<path opacity="0.2" d="M178.877 220.28L157.017 224.56L136.447 237.42L159.167 227.99L186.167 225.85L178.877 220.28Z" fill="#60387C"/>
</g>
<mask id="mask3_84_372" style="mask-type:luminance" maskUnits="userSpaceOnUse" x="19" y="136" width="184" height="197">
<path d="M19.0171 196.71L66.5871 159.42L131.297 136.28L157.007 139.28C157.007 139.28 173.297 177.42 183.147 187.28C183.147 187.28 186.147 210.85 176.287 220.28L177.577 236.14L202.007 255L200.717 291.86L93.1671 332.13L91.8771 288.85L86.3071 274.71L73.0171 270.42L64.4471 247.28L50.7371 217.71L19.0171 196.71Z" fill="white"/>
</mask>
<g mask="url(#mask3_84_372)">
<path opacity="0.2" d="M56.8771 160.37L95.9271 178.21L134.517 161.67L138.677 141.73L127.267 122.28C127.267 122.28 103.477 133.37 103.157 134.82C102.837 136.27 83.0671 149.77 83.0671 149.77L56.8771 160.37Z" fill="#60387C"/>
</g>
<mask id="mask4_84_372" style="mask-type:luminance" maskUnits="userSpaceOnUse" x="19" y="136" width="184" height="197">
<path d="M19.0171 196.71L66.5871 159.42L131.297 136.28L157.007 139.28C157.007 139.28 173.297 177.42 183.147 187.28C183.147 187.28 186.147 210.85 176.287 220.28L177.577 236.14L202.007 255L200.717 291.86L93.1671 332.13L91.8771 288.85L86.3071 274.71L73.0171 270.42L64.4471 247.28L50.7371 217.71L19.0171 196.71Z" fill="white"/>
</mask>
<g mask="url(#mask4_84_372)">
<path opacity="0.2" d="M137.037 290.63L122.007 260.26L97.717 251.06L114.047 263.57L117.947 289.71L137.037 290.63Z" fill="#60387C"/>
</g>
<path d="M81.5872 151.49C81.5872 151.49 104.297 209.35 143.947 236.78L143.737 221.14C143.737 221.14 165.597 223.93 169.667 220.07C169.667 220.07 123.377 197.14 114.597 150.86L81.5872 151.49Z" fill="#EAB788"/>
<path d="M126.467 156.52L133.947 148.2L134.197 132.4L122.527 142.67L112.887 146.83L119.937 154.57L126.467 156.52Z" fill="#EAB788"/>
<path d="M110.517 145.71L132.167 151.28L127.447 158.13L117.167 164.13L82.8771 159.42L62.5171 144.21L62.7371 133.06L66.3771 125.35L91.2371 127.92L110.517 145.71Z" fill="#ECD8B8"/>
<path d="M35.6272 183.63C35.6272 183.63 58.9872 170.67 98.1972 261.95L107.197 259.7C107.197 259.7 69.9072 173.88 44.5172 176.13L40.0172 178.03L35.6272 183.63Z" fill="#433F51"/>
<path d="M62.8372 261.96C62.8372 261.96 89.1972 235.6 129.377 273.85L103.017 282.53H85.3372L62.8372 261.96Z" fill="#554F66"/>
<path d="M83.0872 282.85L89.5172 292.17L90.4772 305.35L144.797 288.64L145.757 284.46L134.507 280.92C134.507 280.92 129.367 269.03 126.147 269.03C122.947 269.03 83.0872 282.85 83.0872 282.85Z" fill="#6F79A1"/>
<path d="M224.817 452.36L187.117 420.87L206.307 398.55L226.077 421.53L224.817 452.36Z" fill="#6F79A1"/>
<path d="M146.507 495.59C146.507 495.59 172.367 505.26 199.137 447.42C225.907 389.58 205.917 483.71 241.647 442.01C277.377 400.31 300.357 353.32 293.597 327.39C286.837 301.46 225.247 282.51 225.247 282.51L171.737 293.2L129.537 392.75C129.537 392.77 134.637 487.16 146.507 495.59Z" fill="#505E87"/>
<mask id="mask5_84_372" style="mask-type:luminance" maskUnits="userSpaceOnUse" x="129" y="282" width="166" height="215">
<path d="M146.507 495.59C146.507 495.59 172.367 505.26 199.137 447.42C225.907 389.58 205.917 483.71 241.647 442.01C277.377 400.31 300.357 353.32 293.597 327.39C286.837 301.46 225.247 282.51 225.247 282.51L171.737 293.2L129.537 392.75C129.537 392.77 134.637 487.16 146.507 495.59Z" fill="white"/>
</mask>
<g mask="url(#mask5_84_372)">
<path opacity="0.2" d="M318.397 328.78L296.167 300.07L240.337 268.72L206.197 273.71L159.887 283.27C159.887 283.27 126.047 355.19 126.187 356.25C126.327 357.31 131.107 369.45 131.107 369.45L160.267 390.22L166.877 400.97L168.127 401.67L165.677 400.42L213.697 428.98L221.717 455.12L238.727 454.68L250.717 443.65L248.997 442.77L294.987 402.8L318.397 328.78Z" fill="#60387C"/>
</g>
<path d="M180.167 410.56C180.167 410.56 199.457 405.42 205.027 408.42C210.597 411.42 241.457 404.99 253.027 305.13L271.027 239.99L237.867 232.38L225.167 245.99L187.877 341.56L180.167 410.56Z" fill="url(#paint0_linear_84_372)"/>
<path d="M155.307 276.42L192.597 240.42L217.877 245.13C217.877 245.13 205.447 382.7 193.877 395.99L149.737 371.99L155.307 276.42Z" fill="url(#paint1_linear_84_372)"/>
<path d="M227.307 257.56C227.307 257.56 232.017 231.85 241.877 230.13C251.737 228.42 269.307 231.84 286.877 255.42C304.447 278.99 346.017 342.85 357.167 361.28L343.457 374.57C343.457 374.57 310.887 351.86 261.167 303.86L227.307 257.56Z" fill="url(#paint2_linear_84_372)"/>
<path d="M178.457 248.32C178.457 248.32 158.727 285.42 193.447 334.7C228.167 383.98 134.307 470.13 145.447 494.56L82.4471 392.13L89.7371 303.84C89.7371 303.84 130.027 299.55 142.877 284.55C155.727 269.55 165.177 255.61 178.457 248.32Z" fill="#6F79A1"/>
<mask id="mask6_84_372" style="mask-type:luminance" maskUnits="userSpaceOnUse" x="82" y="248" width="120" height="247">
<path d="M178.457 248.32C178.457 248.32 158.727 285.42 193.447 334.7C228.167 383.98 134.307 470.13 145.447 494.56L82.4471 392.13L89.7371 303.84C89.7371 303.84 130.027 299.55 142.877 284.55C155.727 269.55 165.177 255.61 178.457 248.32Z" fill="white"/>
</mask>
<g mask="url(#mask6_84_372)">
<path opacity="0.2" d="M95.0871 295.28L89.9471 385.92L158.737 483.63L164.517 475.92L92.9471 385.92L97.0171 294.85L95.0871 295.28Z" fill="#60387C"/>
</g>
<mask id="mask7_84_372" style="mask-type:luminance" maskUnits="userSpaceOnUse" x="82" y="248" width="120" height="247">
<path d="M178.457 248.32C178.457 248.32 158.727 285.42 193.447 334.7C228.167 383.98 134.307 470.13 145.447 494.56L82.4471 392.13L89.7371 303.84C89.7371 303.84 130.027 299.55 142.877 284.55C155.727 269.55 165.177 255.61 178.457 248.32Z" fill="white"/>
</mask>
<g mask="url(#mask7_84_372)">
<path opacity="0.2" d="M102.587 295.92L108.377 374.78L178.877 439.06L182.307 434.35L111.167 372.63L102.587 295.92Z" fill="#60387C"/>
</g>
<mask id="mask8_84_372" style="mask-type:luminance" maskUnits="userSpaceOnUse" x="82" y="248" width="120" height="247">
<path d="M178.457 248.32C178.457 248.32 158.727 285.42 193.447 334.7C228.167 383.98 134.307 470.13 145.447 494.56L82.4471 392.13L89.7371 303.84C89.7371 303.84 130.027 299.55 142.877 284.55C155.727 269.55 165.177 255.61 178.457 248.32Z" fill="white"/>
</mask>
<g mask="url(#mask8_84_372)">
<path opacity="0.2" d="M107.087 298.71L124.877 362.13L200.947 384.21L201.807 380.99L127.877 360.63L107.087 298.71Z" fill="#60387C"/>
</g>
<mask id="mask9_84_372" style="mask-type:luminance" maskUnits="userSpaceOnUse" x="82" y="248" width="120" height="247">
<path d="M178.457 248.32C178.457 248.32 158.727 285.42 193.447 334.7C228.167 383.98 134.307 470.13 145.447 494.56L82.4471 392.13L89.7371 303.84C89.7371 303.84 130.027 299.55 142.877 284.55C155.727 269.55 165.177 255.61 178.457 248.32Z" fill="white"/>
</mask>
<g mask="url(#mask9_84_372)">
<path opacity="0.2" d="M203.087 345.42L144.807 334.06L109.447 298.92L111.167 298.06L145.667 332.56L201.587 342.21L203.087 345.42Z" fill="#60387C"/>
</g>
<mask id="mask10_84_372" style="mask-type:luminance" maskUnits="userSpaceOnUse" x="82" y="248" width="120" height="247">
<path d="M178.457 248.32C178.457 248.32 158.727 285.42 193.447 334.7C228.167 383.98 134.307 470.13 145.447 494.56L82.4471 392.13L89.7371 303.84C89.7371 303.84 130.027 299.55 142.877 284.55C155.727 269.55 165.177 255.61 178.457 248.32Z" fill="white"/>
</mask>
<g mask="url(#mask10_84_372)">
<path opacity="0.2" d="M120.807 295.71L144.807 300.85L160.877 281.78L173.307 277.49V275.13L159.587 279.63L144.377 298.28L120.807 295.71Z" fill="#60387C"/>
</g>
<path d="M19.0171 196.28C19.0171 196.28 7.44714 202.28 19.4471 279.85C31.4471 357.42 19.4471 354.42 33.5871 366.42C47.7271 378.42 44.2971 378.42 61.0171 374.13L79.4471 367.27L158.737 346.27C158.737 346.27 170.307 335.13 163.447 317.56C156.587 299.99 152.737 284.13 128.737 284.13L75.1671 313.7L69.1671 313.27L73.8771 311.56L70.4471 306.42L73.0171 292.28L73.8771 264.42C73.8771 264.42 51.1671 189.85 19.0171 196.28Z" fill="#ECD8B8"/>
<mask id="mask11_84_372" style="mask-type:luminance" maskUnits="userSpaceOnUse" x="14" y="195" width="152" height="182">
<path d="M19.0171 196.28C19.0171 196.28 7.44714 202.28 19.4471 279.85C31.4471 357.42 19.4471 354.42 33.5871 366.42C47.7271 378.42 44.2971 378.42 61.0171 374.13L79.4471 367.27L158.737 346.27C158.737 346.27 170.307 335.13 163.447 317.56C156.587 299.99 152.737 284.13 128.737 284.13L75.1671 313.7L69.1671 313.27L73.8771 311.56L70.4471 306.42L73.0171 292.28L73.8771 264.42C73.8771 264.42 51.1671 189.85 19.0171 196.28Z" fill="white"/>
</mask>
<g mask="url(#mask11_84_372)">
<path opacity="0.2" d="M84.3771 307.28L60.9171 320.78L41.3071 342.63L54.4871 324.96L51.5871 319.81L65.0871 299.24L67.9871 289.92L77.6271 261.63L84.3771 307.28Z" fill="#60387C"/>
</g>
<mask id="mask12_84_372" style="mask-type:luminance" maskUnits="userSpaceOnUse" x="14" y="195" width="152" height="182">
<path d="M19.0171 196.28C19.0171 196.28 7.44714 202.28 19.4471 279.85C31.4471 357.42 19.4471 354.42 33.5871 366.42C47.7271 378.42 44.2971 378.42 61.0171 374.13L79.4471 367.27L158.737 346.27C158.737 346.27 170.307 335.13 163.447 317.56C156.587 299.99 152.737 284.13 128.737 284.13L75.1671 313.7L69.1671 313.27L73.8771 311.56L70.4471 306.42L73.0171 292.28L73.8771 264.42C73.8771 264.42 51.1671 189.85 19.0171 196.28Z" fill="white"/>
</mask>
<g mask="url(#mask12_84_372)">
<path d="M86.9472 264.21C86.9472 264.21 51.9072 204.1 43.8772 203.46L86.9472 264.21Z" fill="#EAB788"/>
</g>
<mask id="mask13_84_372" style="mask-type:luminance" maskUnits="userSpaceOnUse" x="14" y="195" width="152" height="182">
<path d="M19.0171 196.28C19.0171 196.28 7.44714 202.28 19.4471 279.85C31.4471 357.42 19.4471 354.42 33.5871 366.42C47.7271 378.42 44.2971 378.42 61.0171 374.13L79.4471 367.27L158.737 346.27C158.737 346.27 170.307 335.13 163.447 317.56C156.587 299.99 152.737 284.13 128.737 284.13L75.1671 313.7L69.1671 313.27L73.8771 311.56L70.4471 306.42L73.0171 292.28L73.8771 264.42C73.8771 264.42 51.1671 189.85 19.0171 196.28Z" fill="white"/>
</mask>
<g mask="url(#mask13_84_372)">
<path opacity="0.2" d="M139.667 290.88C139.667 290.88 124.877 320.47 158.307 329.13C158.307 329.13 132.587 319.79 139.667 290.88Z" fill="#60387C"/>
</g>
<path d="M140.057 292.71C140.057 292.71 130.127 317.51 154.527 329.14L173.207 319.12C173.207 319.12 176.337 299.61 161.767 286.91L140.057 292.71Z" fill="#ECD8B8"/>
<path d="M162.267 290.91C162.267 290.91 159.587 305.9 170.517 315.39L183.807 308.82L203.307 309.85L182.517 279.42L174.157 279.95L162.267 290.91Z" fill="#CC8E76"/>
<path d="M188.167 237.15C183.787 238.73 181.047 244.88 178.457 248.32C175.427 252.34 173.757 259.52 175.447 264.85C177.217 270.43 177.567 274.07 180.147 279.31C190.477 300.23 204.807 320.36 221.297 336.85C262.437 380.56 291.157 418.71 291.157 418.71L308.727 413.57C308.727 413.57 257.297 287.14 242.297 266.57C236.937 259.22 230.917 252.33 224.227 246.17C220.637 242.86 216.957 238.59 212.097 237.19C206.207 235.49 198.687 236.68 192.587 236.66C191.237 236.66 189.857 236.65 188.557 237.03C188.427 237.06 188.297 237.11 188.167 237.15Z" fill="url(#paint3_linear_84_372)"/>
<path d="M276.587 403.28L289.447 397.28L300.157 382.28L321.157 432.85L337.877 454.71L340.877 468L355.447 502.71C355.447 502.71 355.697 530.01 344.307 535.71C334.017 540.85 315.167 527.57 315.167 527.57L299.737 444L276.587 403.28Z" fill="#554F66"/>
<path d="M325.447 364.71L343.447 355.28L348.157 344.99L385.447 393.85C385.447 393.85 426.587 426.42 474.587 443.99L475.877 458.99C475.877 458.99 448.447 476.99 434.307 466.7C420.167 456.41 409.447 447.84 409.447 447.84L396.157 442.27L373.447 406.7L325.447 364.71Z" fill="#554F66"/>
<path d="M58.1471 135.73C58.1471 135.73 32.6871 144.07 37.9471 163.64C46.3971 195.06 58.9371 186.52 58.9371 186.52C58.9371 186.52 69.5771 189.1 69.1471 196.76C69.1471 196.76 49.1771 193.46 43.4671 177.05C37.6371 160.29 44.2571 148.03 55.7571 138.49L58.1471 135.73Z" fill="#516584"/>
<path d="M78.1671 199.17C78.1671 199.17 102.627 198.74 124.457 182.88C129.197 179.43 135.787 176.45 141.827 177.88C149.217 179.64 151.207 182.44 149.317 189.41C151.437 183.93 151.757 182.75 148.537 177.93C144.807 172.35 137.437 170.75 131.237 172.55C125.607 174.18 123.987 175.77 119.387 179.13C114.967 182.36 110.237 185.15 105.427 187.76C101.447 189.91 97.3571 191.87 93.1971 193.64C90.7971 194.66 88.3771 195.62 85.9371 196.52C84.6371 197 83.3371 197.46 82.0271 197.91C80.9171 198.28 79.3071 199.17 78.1671 199.17Z" fill="#5D7191"/>
<path d="M56.9471 134.78C56.9471 134.78 28.6571 208.92 86.3071 198.21C86.3071 198.21 64.0171 199.28 61.8771 175.28C61.8771 175.28 66.1671 196.71 111.167 192.42C156.167 188.13 163.457 193.49 168.807 205.71C168.807 205.71 170.307 194.14 152.097 185.57C152.097 185.57 160.237 185.06 164.307 190.71C164.307 190.71 160.667 178.92 124.447 173.57C88.2371 168.21 67.2371 144.64 66.1571 135.86L56.9471 134.78Z" fill="#516584"/>
<path d="M51.5871 128.56C51.5871 128.56 50.9471 138.2 63.3771 140.35C75.8071 142.49 76.4471 135.64 76.4471 135.64L51.5871 128.56Z" fill="#A4E6F8"/>
<path d="M154.447 92.13L149.517 120.63L139.447 125.99L136.877 118.28L154.447 92.13Z" fill="#404065"/>
<path d="M141.587 124.49C141.587 124.49 139.337 159.53 160.547 163.06C194.617 168.74 191.407 149.24 191.407 149.24C191.407 149.24 198.267 137.67 205.547 142.06C205.547 142.06 194.187 164.56 175.867 163.17C157.157 161.75 147.907 147.53 143.297 128.78L141.587 124.49Z" fill="#3F4065"/>
<path d="M142.237 124.87C142.237 124.87 150.277 171.32 189.647 153.48C229.017 135.64 252.647 162.48 241.237 184.5C241.237 184.5 251.357 173.09 246.857 156.05C246.857 156.05 254.407 158.94 254.087 164.57C254.087 164.57 259.707 149.46 227.087 136.93C194.467 124.39 174.537 139.98 148.017 120.54L142.237 124.87Z" fill="#516584"/>
<path d="M193.497 131.4C193.497 131.4 234.267 130.06 228.857 166.01C228.857 166.01 237.587 140.03 220.127 132.63C211.517 128.99 205.667 129.42 193.497 131.4Z" fill="#5D7191"/>
<path d="M151.387 117.67C151.427 118.27 151.457 118.88 151.457 119.48C151.457 119.81 151.487 120.2 151.377 120.52C150.797 122.13 149.727 123.54 148.447 124.67C147.247 125.73 142.207 128.67 139.847 127.86C139.167 127.63 138.707 127.08 138.627 126.1C138.557 125.27 139.217 124.53 139.977 124.17C140.737 123.82 141.587 123.74 142.397 123.54C144.237 123.08 145.877 121.96 147.157 120.56C148.747 118.81 150.317 115.49 150.807 113.15L151.387 117.67Z" fill="#CE84D7"/>
<path d="M152.257 95.35C151.327 83.53 150.567 86.77 150.367 84.01C150.817 81.11 151.057 78.13 151.057 75.1C151.057 72.95 150.927 70.84 150.697 68.75C150.717 68.27 150.737 67.78 150.747 67.28L150.527 67.39C146.797 39.44 123.067 17.88 94.3272 17.88C62.9972 17.88 37.6072 43.5 37.6072 75.09C37.6072 94.54 47.2372 111.71 61.9372 122.05C69.7872 127.57 76.5972 133.99 85.0672 138.77C90.3572 141.75 95.8972 144.33 101.647 146.31C106.247 147.89 111.177 150.26 116.157 150.03C118.537 149.92 120.807 148.83 123.047 148.09C126.027 147.1 127.967 146.81 129.907 144.2C130.997 142.74 132.077 141.27 133.127 139.78C136.147 135.51 139.007 131.12 141.637 126.6C146.937 117.51 153.107 106.24 152.257 95.35Z" fill="#CC8E76"/>
<path d="M107.997 95.08C107.997 95.08 106.607 101.27 101.247 102.93L84.9072 102.69C84.9072 102.69 83.6472 102.69 82.1172 103.6L84.8472 100.01C84.8572 100.01 101.787 103.38 107.997 95.08Z" fill="url(#paint4_linear_84_372)"/>
<path d="M128.087 89.75C128.087 89.75 131.717 92.59 135.437 91.73L143.407 86.33C143.407 86.33 143.987 85.8 145.377 85.92L141.437 84.09C141.447 84.09 136.097 89.76 128.087 89.75Z" fill="url(#paint5_linear_84_372)"/>
<path d="M81.6971 86.46L105.267 79.71L106.447 81.42L81.6971 86.46Z" fill="url(#paint6_linear_84_372)"/>
<path d="M142.667 72.63L125.637 74.79L125.677 76.66L142.667 72.63Z" fill="url(#paint7_linear_84_372)"/>
<path d="M129.217 102.21L129.807 105.85L129.267 110.67L132.807 105.63L129.217 102.21Z" fill="#A86763"/>
<path d="M134.437 120.45L131.307 121.65L125.417 124.97L117.247 125.59L112.667 127.6L114.507 128.16L115.977 126.78L117.857 125.99L124.987 125.67L131.307 121.97L132.507 121.78L133.557 121.65L134.437 120.45Z" fill="#A86763"/>
<path d="M123.247 130.44L125.387 130.38L127.207 129.58L125.387 131.99L123.247 130.44Z" fill="#A86763"/>
<path d="M59.5172 104.13C59.5172 104.13 40.2272 76.7 40.4472 101.77C40.6572 126.84 70.2372 123.41 70.2372 123.41L59.5172 104.13Z" fill="#CC8E76"/>
<path d="M144.927 89.71C144.907 89.68 144.877 89.65 144.857 89.62C144.707 89.45 144.477 89.3 144.267 89.19C144.507 89.17 144.777 89.13 144.977 89.03C145.017 89.02 145.047 89 145.077 88.98C145.337 88.81 145.417 88.45 145.237 88.19C145.067 87.93 144.707 87.85 144.447 88.03C144.417 88.05 144.387 88.08 144.357 88.1C144.187 88.25 144.037 88.48 143.927 88.69C143.907 88.45 143.867 88.18 143.767 87.98C143.757 87.94 143.737 87.91 143.717 87.88C143.547 87.62 143.187 87.54 142.927 87.72C142.667 87.89 142.587 88.25 142.767 88.51C142.787 88.54 142.817 88.57 142.837 88.6C142.987 88.77 143.217 88.92 143.427 89.03C143.187 89.05 142.917 89.09 142.717 89.19C142.677 89.2 142.647 89.22 142.617 89.24C142.357 89.41 142.277 89.77 142.457 90.03C142.627 90.29 142.987 90.37 143.247 90.19C143.277 90.17 143.307 90.14 143.337 90.12C143.507 89.97 143.657 89.74 143.767 89.53C143.787 89.77 143.827 90.04 143.927 90.24C143.937 90.28 143.957 90.31 143.977 90.34C144.147 90.6 144.507 90.68 144.767 90.5C145.027 90.33 145.097 89.98 144.927 89.71Z" fill="#A4E6F8"/>
<path d="M160.447 92.13C160.447 92.13 175.237 90.2 174.157 75.63C173.087 61.06 148.867 59.99 143.947 51.42L138.377 28.49C138.377 28.49 156.377 56.13 166.447 61.49C176.517 66.85 179.517 82.7 158.737 86.56L160.447 92.13Z" fill="#3F4065"/>
<path d="M69.5872 18.63L61.2272 19.27C61.2272 19.27 20.0872 37.27 23.2972 85.16C23.2972 85.16 39.0472 105.41 21.3672 114.09C21.3672 114.09 32.2972 119.23 39.0472 114.73L42.2572 122.12L53.5072 130.16C53.5072 130.16 78.8972 137.87 78.8972 149.45C78.8972 149.45 75.3572 126.31 70.8572 121.49L63.1472 105.74C63.1472 105.74 67.9672 75.53 84.0372 72.95L78.0372 73.27C78.0372 73.27 83.0772 68.98 90.3572 68.98L98.6072 64.48L96.9972 67.59C96.9972 67.59 99.8872 64.8 104.067 65.88C108.247 66.95 121.637 60.42 121.637 60.42L146.387 71.67L152.067 99.21C152.067 99.21 156.997 92.35 156.997 91.07C156.997 89.79 161.067 97.07 161.067 103.28C161.067 103.28 164.707 93.21 158.067 77.35C151.427 61.49 158.277 51.85 137.067 27.42C115.857 2.99 76.0172 11.13 76.0172 11.13L69.5872 18.63Z" fill="url(#paint8_linear_84_372)"/>
<path d="M49.0172 15.21C49.0172 15.21 50.0872 4.71 56.3072 0C56.3072 0 56.0972 28.5 75.3772 29.14C75.3772 29.13 55.2372 29.56 49.0172 15.21Z" fill="#3F4065"/>
<path d="M98.5172 60.85C98.5172 60.85 133.877 103.06 169.657 64.49C169.657 64.49 150.797 84.85 124.227 51.85C97.6572 18.85 77.2972 37.49 90.3672 68.99L98.5172 60.85Z" fill="#516584"/>
<path d="M90.3772 68.99C90.3772 68.99 75.1672 54.2 74.7372 79.49C74.2472 108.67 83.7372 126.2 98.3072 119.56C98.3072 119.56 85.8772 127.7 75.3772 116.35C75.3772 116.35 78.1672 127.49 89.3072 131.35C100.447 135.21 103.017 137.99 103.877 144.21C103.877 144.21 100.017 132.64 84.3772 135.85C84.3772 135.85 80.3072 136.71 76.4472 135.64C76.4472 135.64 77.8372 139.82 81.3772 141.43C81.3772 141.43 48.3772 138.43 60.8072 82.72C73.2372 27.01 90.3772 68.99 90.3772 68.99Z" fill="url(#paint9_linear_84_372)"/>
<path d="M139.237 95.56C139.237 95.56 114.597 98.13 108.167 77.77C101.737 57.41 95.5272 53.77 90.3772 68.98C90.3772 68.98 90.5872 51.19 102.167 52.69C113.747 54.19 110.087 89.99 139.237 95.56Z" fill="url(#paint10_linear_84_372)"/>
<path d="M145.017 74.78C145.017 74.78 139.227 105.07 152.947 107.57C164.737 109.71 164.517 126 155.307 127.71C155.307 127.71 170.737 126.64 171.377 111.64C171.377 111.64 175.877 112.07 176.087 116.78C176.087 116.78 181.877 107.57 162.157 100.49C142.447 93.42 155.297 67.06 142.447 52.92C129.597 38.78 99.3772 -5.58 77.5172 39.85L90.3772 68.99L96.8072 45.63L134.307 76.06L145.017 74.78Z" fill="#516584"/>
<path d="M57.1572 69.27C56.9872 69.02 56.7972 68.79 56.5972 68.58C55.4672 67.3 53.6972 66.18 52.0772 65.34C53.9072 65.21 55.9672 64.88 57.5072 64.15C57.7772 64.04 58.0472 63.91 58.2972 63.74C60.3072 62.41 60.8672 59.71 59.5472 57.69C58.2172 55.68 55.5172 55.12 53.4972 56.44C53.2472 56.61 53.0172 56.8 52.8072 57C51.5272 58.13 50.4072 59.9 49.5672 61.52C49.4372 59.69 49.1072 57.63 48.3772 56.09C48.2672 55.82 48.1372 55.55 47.9672 55.3C46.6372 53.29 43.9372 52.73 41.9172 54.05C39.9072 55.38 39.3472 58.08 40.6672 60.1C40.8372 60.35 41.0272 60.58 41.2272 60.79C42.3572 62.07 44.1272 63.19 45.7472 64.03C43.9172 64.16 41.8572 64.49 40.3172 65.22C40.0472 65.33 39.7772 65.46 39.5272 65.63C37.5172 66.96 36.9572 69.66 38.2772 71.68C39.6072 73.69 42.3072 74.25 44.3272 72.93C44.5772 72.76 44.8072 72.57 45.0172 72.37C46.2972 71.24 47.4172 69.47 48.2572 67.85C48.3872 69.68 48.7172 71.74 49.4472 73.29C49.5572 73.56 49.6872 73.83 49.8572 74.08C51.1872 76.09 53.8872 76.65 55.9072 75.33C57.9172 73.99 58.4772 71.28 57.1572 69.27Z" fill="#CE84D7"/>
<path d="M48.5371 68.35C50.4591 68.35 52.0171 66.792 52.0171 64.87C52.0171 62.9481 50.4591 61.39 48.5371 61.39C46.6152 61.39 45.0571 62.9481 45.0571 64.87C45.0571 66.792 46.6152 68.35 48.5371 68.35Z" fill="#A4E6F8"/>
<circle cx="430.384" cy="499.806" r="39.1025" transform="rotate(24.5269 430.384 499.806)" fill="#2E6181" fill-opacity="0.4"/>
<circle cx="433.008" cy="495.008" r="38.5" transform="rotate(24.5269 433.008 495.008)" fill="#A4E6F8" fill-opacity="0.4"/>
<path fill-rule="evenodd" clip-rule="evenodd" d="M452.859 516.739C449.434 517.433 445.827 517.525 442.174 516.917C426.122 514.246 415.275 499.067 417.947 483.016C418.925 477.137 421.581 471.957 425.342 467.883C425.007 467.951 424.673 468.025 424.341 468.104C413.172 470.778 404.129 479.891 402.125 491.932C399.454 507.984 410.301 523.162 426.353 525.834C436.527 527.527 446.349 523.79 452.859 516.739Z" fill="#83E9FF" fill-opacity="0.5" style="mix-blend-mode:soft-light"/>
<ellipse cx="457.65" cy="480.829" rx="7.66071" ry="5.69643" transform="rotate(53.4681 457.65 480.829)" fill="white" fill-opacity="0.6"/>
<ellipse cx="444.172" cy="474.114" rx="3.74578" ry="2.78533" transform="rotate(53.4681 444.172 474.114)" fill="white" fill-opacity="0.6"/>
<circle cx="295.819" cy="144.819" r="25.5262" transform="rotate(24.5269 295.819 144.819)" fill="#2E6181" fill-opacity="0.4"/>
<circle cx="297.733" cy="141.733" r="25.4613" transform="rotate(24.5269 297.733 141.733)" fill="#A4E6F8" fill-opacity="0.4"/>
<path fill-rule="evenodd" clip-rule="evenodd" d="M310.862 156.105C308.596 156.564 306.211 156.624 303.795 156.222C293.18 154.456 286.006 144.418 287.773 133.802C288.42 129.915 290.176 126.489 292.664 123.795C292.442 123.839 292.221 123.888 292.001 123.941C284.615 125.709 278.635 131.736 277.31 139.699C275.543 150.315 282.716 160.353 293.332 162.119C300.06 163.239 306.556 160.767 310.862 156.105Z" fill="#83E9FF" fill-opacity="0.5" style="mix-blend-mode:soft-light"/>
<ellipse cx="314.03" cy="132.356" rx="5.06628" ry="3.76724" transform="rotate(53.4681 314.03 132.356)" fill="white" fill-opacity="0.6"/>
<ellipse cx="305.116" cy="127.916" rx="2.47721" ry="1.84203" transform="rotate(53.4681 305.116 127.916)" fill="white" fill-opacity="0.6"/>
<circle cx="25.1487" cy="445.149" r="14.4531" transform="rotate(24.5269 25.1487 445.149)" fill="#2E6181" fill-opacity="0.4"/>
<circle cx="26.1487" cy="441.149" r="14.4531" transform="rotate(24.5269 26.1487 441.149)" fill="#A4E6F8" fill-opacity="0.4"/>
<path fill-rule="evenodd" clip-rule="evenodd" d="M33.6008 449.306C32.315 449.567 30.9608 449.602 29.5896 449.373C23.5636 448.371 19.4916 442.673 20.4945 436.647C20.8617 434.44 21.8586 432.495 23.2707 430.966C23.1448 430.991 23.0195 431.019 22.8949 431.049C18.7018 432.053 15.3074 435.473 14.5551 439.994C13.5522 446.02 17.6243 451.718 23.6502 452.721C27.4694 453.356 31.1569 451.953 33.6008 449.306Z" fill="#83E9FF" fill-opacity="0.5" style="mix-blend-mode:soft-light"/>
<ellipse cx="35.3993" cy="435.826" rx="2.87587" ry="2.13847" transform="rotate(53.4681 35.3993 435.826)" fill="white" fill-opacity="0.6"/>
<ellipse cx="30.3395" cy="433.305" rx="1.40619" ry="1.04563" transform="rotate(53.4681 30.3395 433.305)" fill="white" fill-opacity="0.6"/>
<defs>
<linearGradient id="paint0_linear_84_372" x1="243.54" y1="282.082" x2="169.397" y2="454.796" gradientUnits="userSpaceOnUse">
<stop offset="0.1816" stop-color="#4C4159"/>
<stop offset="0.5615" stop-color="#544767"/>
</linearGradient>
<linearGradient id="paint1_linear_84_372" x1="196.091" y1="284.18" x2="142.383" y2="415.972" gradientUnits="userSpaceOnUse">
<stop offset="0.1816" stop-color="#5A4D67"/>
<stop offset="0.5615" stop-color="#584363"/>
</linearGradient>
<linearGradient id="paint2_linear_84_372" x1="273.537" y1="278.95" x2="378.537" y2="406.236" gradientUnits="userSpaceOnUse">
<stop offset="0.243" stop-color="#4C4159"/>
<stop offset="0.8128" stop-color="#403C62"/>
</linearGradient>
<linearGradient id="paint3_linear_84_372" x1="210.27" y1="274.225" x2="313.984" y2="417.368" gradientUnits="userSpaceOnUse">
<stop offset="0.3212" stop-color="#5A4D67"/>
<stop offset="0.8128" stop-color="#403C62"/>
</linearGradient>
<linearGradient id="paint4_linear_84_372" x1="108.002" y1="99.3395" x2="82.1272" y2="99.3395" gradientUnits="userSpaceOnUse">
<stop stop-color="#54314A"/>
<stop offset="0.2793" stop-color="#3F4065"/>
<stop offset="1" stop-color="#54314A"/>
</linearGradient>
<linearGradient id="paint5_linear_84_372" x1="131.009" y1="92.9959" x2="142.481" y2="82.692" gradientUnits="userSpaceOnUse">
<stop stop-color="#54314A"/>
<stop offset="0.2793" stop-color="#3F4065"/>
<stop offset="1" stop-color="#54314A"/>
</linearGradient>
<linearGradient id="paint6_linear_84_372" x1="106.449" y1="83.0806" x2="81.6985" y2="83.0806" gradientUnits="userSpaceOnUse">
<stop stop-color="#54314A"/>
<stop offset="0.2793" stop-color="#3F4065"/>
<stop offset="1" stop-color="#54314A"/>
</linearGradient>
<linearGradient id="paint7_linear_84_372" x1="126.087" y1="77.5242" x2="141.525" y2="70.2276" gradientUnits="userSpaceOnUse">
<stop stop-color="#54314A"/>
<stop offset="0.2793" stop-color="#3F4065"/>
<stop offset="1" stop-color="#54314A"/>
</linearGradient>
<linearGradient id="paint8_linear_84_372" x1="99.18" y1="131.351" x2="66.7157" y2="4.70801" gradientUnits="userSpaceOnUse">
<stop offset="0.2793" stop-color="#3F4065"/>
<stop offset="0.567" stop-color="#516584"/>
</linearGradient>
<linearGradient id="paint9_linear_84_372" x1="80.9423" y1="86.9913" x2="80.9423" y2="51.4199" gradientUnits="userSpaceOnUse">
<stop offset="0.4106" stop-color="#5C7191"/>
<stop offset="0.8743" stop-color="#516584"/>
</linearGradient>
<linearGradient id="paint10_linear_84_372" x1="114.806" y1="86.9913" x2="114.806" y2="51.4199" gradientUnits="userSpaceOnUse">
<stop offset="0.4106" stop-color="#5C7191"/>
<stop offset="0.8743" stop-color="#516584"/>
</linearGradient>
</defs>
</svg>
