<svg width="152" height="54" viewBox="0 0 152 54" fill="none" xmlns="http://www.w3.org/2000/svg">
<rect width="152" height="54" rx="20" fill="#233041"/>
<path d="M37.224 34.216L34.44 37H26.536L23.784 34.216V17.672L26.536 14.888H34.44L37.224 17.672V19.976L34.056 23.176V17.672H26.952V34.216H34.056V31.88L37.224 28.712V34.216ZM52.6053 25.928L49.4373 29.096V23.176H44.7333V37H41.5653V20.392H44.7333V22.792L47.0373 20.392H49.8533L52.6053 23.176V25.928ZM67.0338 37H63.8658V34.632L61.4978 37H58.3298L55.5778 34.216V28.712L58.3298 25.928H63.5458L60.9218 28.68H58.7138V34.216H63.8658V23.176H55.1618L57.5298 20.392H64.2818L67.0338 23.176V37ZM82.4258 14.888H75.7058V22.376L77.6898 20.392H81.1778L78.4258 23.176H75.7058V37H72.5378V14.888L75.3218 12.104H79.6098L82.4258 14.888ZM90.755 20.392L87.971 23.176H85.987V34.216H89.923V37H85.603L82.819 34.216V23.176H78.883L81.667 20.392H82.819V18.056L85.987 14.888V20.392H90.755ZM96.2958 17.672H93.1278V14.504H96.2958V17.672ZM96.2958 37H93.1278V22.824L96.2958 19.624V37ZM113.239 37H110.103V23.176H104.983V37H101.815V20.392H104.983V22.792L107.319 20.392H110.487L113.239 23.176V37ZM130.501 20.392L127.749 23.176H121.029V34.216H126.149V25.928H129.317V42.536L126.565 45.288H117.477L120.197 42.536H126.149V34.568L122.981 37H120.645L117.861 34.216V23.176L120.645 20.392H130.501Z" fill="white"/>
</svg>
