<svg width="160" height="54" viewBox="0 0 160 54" fill="none" xmlns="http://www.w3.org/2000/svg">
<rect width="160" height="54" rx="20" fill="#233041"/>
<path d="M39.992 34.216L37.208 37H26.168V20.392L28.952 17.672H25.784V14.888H37.208L39.992 17.672V34.216ZM36.824 34.216V17.672H29.336V36.616L31.672 34.216H36.824ZM56.6053 25.928L53.4373 29.096V23.176H48.7333V37H45.5653V20.392H48.7333V22.792L51.0373 20.392H53.8533L56.6053 23.176V25.928ZM71.0338 37H67.8658V34.632L65.4978 37H62.3298L59.5778 34.216V28.712L62.3298 25.928H67.5458L64.9218 28.68H62.7138V34.216H67.8658V23.176H59.1618L61.5298 20.392H68.2818L71.0338 23.176V37ZM94.5218 32.968L90.5218 37H87.8018L85.0498 34.248L82.2658 37H79.6098L75.5778 32.968V19.624L78.7138 22.792V32.456L81.0818 34.792L83.4818 32.264V22.792L86.6498 19.624V32.264L88.9858 34.792L91.3858 32.456V22.792L94.5218 19.624V32.968ZM102.452 17.672H99.284V14.504H102.452V17.672ZM102.452 37H99.284V22.824L102.452 19.624V37ZM119.396 37H116.26V23.176H111.14V37H107.972V20.392H111.14V22.792L113.476 20.392H116.644L119.396 23.176V37ZM136.657 20.392L133.905 23.176H127.185V34.216H132.305V25.928H135.473V42.536L132.721 45.288H123.633L126.353 42.536H132.305V34.568L129.137 37H126.801L124.017 34.216V23.176L126.801 20.392H136.657Z" fill="white"/>
</svg>
