<svg width="71" height="71" viewBox="0 0 71 71" fill="none" xmlns="http://www.w3.org/2000/svg">
<path d="M47.962 58.432C47.942 57.582 47.842 56.762 47.662 55.972C46.922 51.282 44.422 46.022 41.862 41.622C46.352 44.022 51.692 46.342 56.402 46.902C57.202 47.052 58.032 47.122 58.872 47.112C65.572 46.992 70.912 41.462 70.792 34.752C70.672 28.052 65.142 22.712 58.432 22.832C57.582 22.852 56.762 22.952 55.972 23.132C51.282 23.872 46.032 26.372 41.622 28.932C44.022 24.442 46.342 19.102 46.902 14.392C47.052 13.592 47.122 12.762 47.112 11.922C46.992 5.22199 41.462 -0.118017 34.752 0.00198349C28.052 0.121983 22.712 5.65198 22.832 12.362C22.852 13.212 22.952 14.032 23.132 14.822C23.872 19.512 26.372 24.762 28.932 29.162C24.442 26.762 19.102 24.442 14.392 23.882C13.592 23.732 12.762 23.662 11.922 23.672C5.22199 23.792 -0.118017 29.322 0.00198349 36.032C0.121983 42.732 5.65198 48.072 12.362 47.952C13.212 47.932 14.032 47.832 14.822 47.652C19.512 46.912 24.772 44.412 29.172 41.852C26.772 46.342 24.452 51.682 23.892 56.402C23.742 57.202 23.672 58.032 23.682 58.872C23.802 65.572 29.332 70.912 36.042 70.792C42.742 70.672 48.082 65.132 47.962 58.432Z" fill="#5C7191"/>
<path d="M35.1719 42.512C39.1429 42.512 42.3619 39.2929 42.3619 35.322C42.3619 31.3511 39.1429 28.132 35.1719 28.132C31.201 28.132 27.9819 31.3511 27.9819 35.322C27.9819 39.2929 31.201 42.512 35.1719 42.512Z" fill="#A4E6F8"/>
</svg>
