<svg width="152" height="54" viewBox="0 0 152 54" fill="none" xmlns="http://www.w3.org/2000/svg">
<rect width="152" height="54" rx="20" fill="#233041"/>
<path d="M37.992 25.928L35.208 28.712H27.336V37H24.168V20.392L26.952 17.672H23.784V14.888H35.208L37.992 17.672V25.928ZM34.824 25.928V17.672H27.336V28.328L29.672 25.928H34.824ZM53.2213 37H50.0533V34.632L47.6853 37H44.5173L41.7653 34.216V28.712L44.5173 25.928H49.7333L47.1093 28.68H44.9013V34.216H50.0533V23.176H41.3493L43.7173 20.392H50.4693L53.2213 23.176V37ZM61.7333 17.672H58.5653V14.504H61.7333V17.672ZM61.7333 37H58.5653V22.824L61.7333 19.624V37ZM78.6768 37H75.5408V23.176H70.4208V37H67.2528V20.392H70.4208V22.792L72.7568 20.392H75.9248L78.6768 23.176V37ZM92.13 20.392L89.346 23.176H87.362V34.216H91.298V37H86.978L84.194 34.216V23.176H80.258L83.042 20.392H84.194V18.056L87.362 14.888V20.392H92.13ZM97.6708 17.672H94.5028V14.504H97.6708V17.672ZM97.6708 37H94.5028V22.824L97.6708 19.624V37ZM114.614 37H111.478V23.176H106.358V37H103.19V20.392H106.358V22.792L108.694 20.392H111.862L114.614 23.176V37ZM131.876 20.392L129.124 23.176H122.404V34.216H127.524V25.928H130.692V42.536L127.94 45.288H118.852L121.572 42.536H127.524V34.568L124.356 37H122.02L119.236 34.216V23.176L122.02 20.392H131.876Z" fill="white"/>
</svg>
