<svg width="138" height="54" viewBox="0 0 138 54" fill="none" xmlns="http://www.w3.org/2000/svg">
<rect width="138" height="54" rx="20" fill="#233041"/>
<path d="M43.28 32.232L38.576 37H35.472L31.824 33.288L28.208 37H25.072L20.368 32.232V14.888H23.536V31.336L26.416 34.312H27.28L30.224 31.336V14.888H33.392V31.336L36.336 34.312H37.232L40.112 31.432V14.888H43.28V32.232ZM59.4803 25.928L56.3123 29.096V23.176H51.6083V37H48.4403V20.392H51.6083V22.792L53.9123 20.392H56.7283L59.4803 23.176V25.928ZM66.4208 17.672H63.2528V14.504H66.4208V17.672ZM66.4208 37H63.2528V22.824L66.4208 19.624V37ZM80.0363 20.392L77.2523 23.176H75.2683V34.216H79.2043V37H74.8843L72.1003 34.216V23.176H68.1642L70.9483 20.392H72.1003V18.056L75.2683 14.888V20.392H80.0363ZM85.577 17.672H82.409V14.504H85.577V17.672ZM85.577 37H82.409V22.824L85.577 19.624V37ZM102.521 37H99.3845V23.176H94.2645V37H91.0965V20.392H94.2645V22.792L96.6005 20.392H99.7685L102.521 23.176V37ZM119.782 20.392L117.03 23.176H110.31V34.216H115.43V25.928H118.598V42.536L115.846 45.288H106.758L109.478 42.536H115.43V34.568L112.262 37H109.926L107.142 34.216V23.176L109.926 20.392H119.782Z" fill="white"/>
</svg>
