<svg width="304" height="413" viewBox="0 0 304 413" fill="none" xmlns="http://www.w3.org/2000/svg">
<circle cx="173.933" cy="282.932" r="98.0705" transform="rotate(24.5269 173.933 282.932)" fill="#142341" fill-opacity="0.4"/>
<circle cx="110.81" cy="101.809" r="38.35" transform="rotate(24.5269 110.81 101.809)" fill="#142341" fill-opacity="0.4"/>
<circle cx="28.205" cy="28.2049" r="21.2885" transform="rotate(24.5269 28.205 28.2049)" fill="#142341" fill-opacity="0.4"/>
<path fill-rule="evenodd" clip-rule="evenodd" d="M246.933 301.347C239.734 306.574 231.478 310.599 222.377 313.051C182.382 323.826 141.224 300.138 130.449 260.143C126.503 245.496 127.179 230.694 131.585 217.285C130.88 217.797 130.185 218.32 129.5 218.855C106.46 236.849 95.1493 267.507 103.233 297.51C114.008 337.505 155.166 361.192 195.161 350.417C220.509 343.588 239.307 324.554 246.933 301.347Z" fill="#83E9FF" style="mix-blend-mode:soft-light"/>
<circle cx="178" cy="272" r="98" fill="#A4E6F8" fill-opacity="0.4"/>
<ellipse cx="220.082" cy="213.125" rx="19.5" ry="14.5" transform="rotate(28.9412 220.082 213.125)" fill="white" fill-opacity="0.6"/>
<ellipse cx="181.775" cy="211.818" rx="9.53472" ry="7.08992" transform="rotate(28.9412 181.775 211.818)" fill="white" fill-opacity="0.6"/>
<g style="mix-blend-mode:darken">
<path d="M211.659 295.64L165.845 307.926L146.794 261.507L207.965 246.493L211.659 295.64Z" fill="#CC7038"/>
<mask id="mask0_84_373" style="mask-type:luminance" maskUnits="userSpaceOnUse" x="146" y="246" width="66" height="62">
<path d="M211.659 295.64L165.845 307.926L146.794 261.507L207.965 246.493L211.659 295.64Z" fill="white"/>
</mask>
<g mask="url(#mask0_84_373)">
<path d="M211.378 294.857C213.819 308.248 205.521 320.975 192.827 323.291C180.133 325.607 167.868 316.633 165.427 303.242C162.986 289.851 171.284 277.124 183.978 274.808C196.671 272.492 208.937 281.466 211.378 294.857Z" fill="url(#paint0_radial_84_373)"/>
</g>
<mask id="mask1_84_373" style="mask-type:luminance" maskUnits="userSpaceOnUse" x="168" y="229" width="58" height="63">
<path d="M218.182 230.622L225.758 277.444L177.649 291.688L168.916 229.313L218.182 230.622Z" fill="white"/>
</mask>
<g mask="url(#mask1_84_373)">
<path d="M187.922 256.707C187.145 254.224 182.486 253.472 177.516 255.027C172.546 256.582 169.146 259.855 169.923 262.338C170.699 264.82 175.358 265.572 180.328 264.017C185.299 262.462 188.698 259.189 187.922 256.707Z" fill="#E389ED"/>
</g>
<mask id="mask2_84_373" style="mask-type:luminance" maskUnits="userSpaceOnUse" x="156" y="250" width="55" height="64">
<path d="M205.375 254.305L210.344 301.477L161.517 313.033L156.255 250.267L205.375 254.305Z" fill="white"/>
</mask>
<g mask="url(#mask2_84_373)">
<path d="M190.137 277.17C188.831 272.008 185.168 268.483 181.956 269.295C178.743 270.108 177.197 274.951 178.503 280.112C179.809 285.274 183.471 288.799 186.684 287.987C189.896 287.174 191.442 282.331 190.137 277.17Z" fill="#CC7038"/>
</g>
<mask id="mask3_84_373" style="mask-type:luminance" maskUnits="userSpaceOnUse" x="156" y="250" width="55" height="64">
<path d="M205.375 254.305L210.344 301.477L161.517 313.033L156.255 250.267L205.375 254.305Z" fill="white"/>
</mask>
<g mask="url(#mask3_84_373)">
<path d="M188.459 277.594C187.53 273.921 184.924 271.412 182.638 271.99C180.351 272.569 179.251 276.015 180.18 279.688C181.109 283.361 183.716 285.87 186.002 285.292C188.288 284.713 189.389 281.267 188.459 277.594Z" fill="white"/>
</g>
<path d="M163.616 312.144C169.792 310.51 176.469 309.717 182.807 308.589C189.073 307.471 195.478 306.805 201.663 305.243C202.723 304.974 203.78 304.673 204.821 304.336C209.531 302.785 213.949 300.349 217.788 297.224C225.881 290.645 231.251 281.24 234.033 271.28C234.095 271.068 234.157 270.857 234.205 270.64C233.399 273.912 231.903 277.099 230.318 280.052C226.655 286.865 221.493 292.895 215.089 297.271C205.776 303.644 194.6 305.136 183.793 307.362C177.997 308.561 172.247 309.893 166.523 311.388C165.55 311.631 164.585 311.892 163.616 312.144Z" fill="#A86763"/>
<path d="M107.372 277.234C107.372 277.234 127.827 244.459 220.487 239.257C220.487 239.257 163.762 237.451 115.529 264.176L107.372 277.234Z" fill="#A86763"/>
<path d="M216.153 244.225C221.117 237.681 218.704 229.533 218.704 229.533C214.606 239.165 207.778 242.755 203.627 244.087C203.086 244.068 202.558 244.055 202.004 244.032C190.529 243.606 176.814 247.22 164.138 251.965C156.779 250.125 148.256 244.682 148.256 244.682C152.44 249.623 155.736 252.541 158.232 254.278C140.7 261.453 126.341 269.987 124.727 271.375C117.824 277.303 100.582 306.024 100.582 306.024C100.587 306.011 100.602 305.994 100.611 305.99C104.783 300.721 110.075 296.213 115.328 292.069C129.229 281.12 145.077 272.709 161.478 266.171C178.309 259.471 202.128 250.593 218.763 262.733C218.939 263.93 218.965 265.159 218.97 266.365C219.073 282.803 209.129 296.234 192.884 300.116C191.712 300.4 190.542 300.641 189.355 300.866C181.153 302.444 172.925 303.402 164.892 305.777C156.904 308.134 149.116 311.438 142.307 316.292C148.165 313.586 154.223 311.6 160.44 309.937C164.637 308.813 168.848 307.749 173.122 306.984C174.91 306.663 176.711 306.371 178.511 306.078C177.76 308.641 178.647 312.21 178.647 312.21C178.413 309.939 179.764 307.326 180.794 305.72C186.383 304.849 191.975 303.986 197.455 302.607C198.878 302.247 200.291 301.838 201.677 301.364C204.3 302.612 207.794 304.596 209.624 306.989C209.624 306.989 207.35 302.85 204.619 300.234C207.747 298.926 210.729 297.279 213.401 295.187C216.821 292.504 219.321 289.224 221.386 285.587C223.857 285.007 227.395 284.807 232.182 285.9C232.182 285.9 227.47 283.154 222.745 283.046C223.177 282.176 223.601 281.287 224.009 280.383C226.819 274.12 228.367 267.626 232.256 261.901C237.265 254.523 243.59 248.005 249.742 241.594C249.747 241.581 237.315 244.025 216.153 244.225Z" fill="url(#paint1_linear_84_373)"/>
<path d="M250.123 300.352C249.869 300.19 249.603 300.053 249.337 299.939C247.794 299.207 245.726 298.875 243.906 298.741C245.537 297.9 247.301 296.786 248.429 295.508C248.634 295.301 248.831 295.075 248.993 294.82C250.317 292.806 249.769 290.104 247.76 288.767C245.746 287.443 243.043 287.992 241.706 290.001C241.544 290.255 241.407 290.521 241.293 290.787C240.561 292.33 240.229 294.398 240.095 296.218C239.254 294.587 238.14 292.823 236.862 291.695C236.655 291.491 236.429 291.294 236.174 291.131C234.16 289.807 231.458 290.356 230.121 292.364C228.797 294.379 229.346 297.081 231.355 298.418C231.609 298.581 231.875 298.717 232.141 298.831C233.684 299.563 235.752 299.895 237.572 300.03C235.941 300.87 234.177 301.984 233.049 303.262C232.844 303.469 232.648 303.695 232.485 303.95C231.161 305.964 231.709 308.666 233.718 310.003C235.732 311.327 238.435 310.778 239.772 308.769C239.935 308.515 240.071 308.25 240.185 307.983C240.917 306.44 241.249 304.372 241.383 302.552C242.224 304.183 243.338 305.947 244.62 307.084C244.827 307.289 245.053 307.486 245.308 307.649C247.322 308.972 250.024 308.424 251.361 306.415C252.69 304.388 252.128 301.68 250.123 300.352Z" fill="#A4E6F8"/>
</g>
<circle cx="112.5" cy="96.5" r="38.5" transform="rotate(24.5269 112.5 96.5)" fill="#A4E6F8" fill-opacity="0.4"/>
<path fill-rule="evenodd" clip-rule="evenodd" d="M132.351 118.231C128.926 118.925 125.319 119.017 121.666 118.409C105.614 115.738 94.7673 100.559 97.4387 84.5074C98.417 78.6291 101.073 73.4487 104.834 69.3747C104.499 69.4427 104.165 69.5164 103.833 69.5959C92.6636 72.2698 83.6214 81.3824 81.6174 93.424C78.9461 109.476 89.7931 124.654 105.845 127.325C116.019 129.019 125.841 125.281 132.351 118.231Z" fill="#83E9FF" fill-opacity="0.5" style="mix-blend-mode:soft-light"/>
<ellipse cx="137.142" cy="82.3205" rx="7.66071" ry="5.69643" transform="rotate(53.4681 137.142 82.3205)" fill="white" fill-opacity="0.6"/>
<ellipse cx="123.664" cy="75.6062" rx="3.74578" ry="2.78533" transform="rotate(53.4681 123.664 75.6062)" fill="white" fill-opacity="0.6"/>
<circle cx="30.4628" cy="25.4626" r="21.0134" transform="rotate(-4.10179 30.4628 25.4626)" fill="#A4E6F8" fill-opacity="0.4"/>
<path fill-rule="evenodd" clip-rule="evenodd" d="M45.6556 30.6819C44.1963 31.9101 42.4922 32.8976 40.5834 33.5616C32.1948 36.4795 23.0289 32.0447 20.111 23.656C19.0424 20.584 18.9599 17.4078 19.6965 14.4723C19.5536 14.5926 19.413 14.7152 19.2747 14.8401C14.623 19.042 12.6742 25.7723 14.8632 32.0651C17.7811 40.4538 26.947 44.8887 35.3356 41.9707C40.6523 40.1213 44.3807 35.7622 45.6556 30.6819Z" fill="#83E9FF" fill-opacity="0.5" style="mix-blend-mode:soft-light"/>
<ellipse cx="38.5599" cy="12.2255" rx="4.18124" ry="3.10913" transform="rotate(24.8394 38.5599 12.2255)" fill="white" fill-opacity="0.6"/>
<ellipse cx="30.3471" cy="12.5335" rx="2.04446" ry="1.52024" transform="rotate(24.8394 30.3471 12.5335)" fill="white" fill-opacity="0.6"/>
<defs>
<radialGradient id="paint0_radial_84_373" cx="0" cy="0" r="1" gradientUnits="userSpaceOnUse" gradientTransform="translate(188.402 299.049) rotate(-23.1929) scale(53.2967 53.2967)">
<stop offset="0.2051" stop-color="#DC71CB"/>
<stop offset="0.5468" stop-color="#CC7038"/>
</radialGradient>
<linearGradient id="paint1_linear_84_373" x1="101.809" y1="308.874" x2="251.16" y2="244.884" gradientUnits="userSpaceOnUse">
<stop stop-color="#54314A"/>
<stop offset="0.2793" stop-color="#3F4065"/>
<stop offset="1" stop-color="#54314A"/>
</linearGradient>
</defs>
</svg>
