<svg width="238" height="54" viewBox="0 0 238 54" fill="none" xmlns="http://www.w3.org/2000/svg">
<rect width="238" height="54" rx="20" fill="#233041"/>
<path d="M35.768 37H32.632V28.712H25.112V37H21.944V17.672L24.728 14.888H35.768V37ZM34.616 17.672H25.112V28.328L27.512 25.928H32.632V19.656L34.616 17.672ZM52.7615 25.928L49.5935 29.096V23.176H44.8895V37H41.7215V20.392H44.8895V22.792L47.1935 20.392H50.0095L52.7615 23.176V25.928ZM64.63 20.392L61.846 23.176H59.862V34.216H63.798V37H59.478L56.694 34.216V23.176H52.758L55.542 20.392H56.694V18.056L59.862 14.888V20.392H64.63ZM76.3788 23.176H68.4748V25.928H72.8268L75.6108 28.712V34.216L72.8268 37H65.3068V34.216H72.4427V28.712H68.0908L65.3068 25.928V23.176L68.0908 20.392H73.5628L76.3788 23.176ZM95.7213 37H92.5533V34.632L90.1853 37H87.0173L84.2653 34.216V28.712L87.0173 25.928H92.2333L89.6093 28.68H87.4013V34.216H92.5533V23.176H83.8493L86.2173 20.392H92.9693L95.7213 23.176V37ZM112.489 37H109.353V23.176H104.233V37H101.065V20.392H104.233V22.792L106.569 20.392H109.737L112.489 23.176V37ZM128.951 37H125.815V34.632L123.51 37H120.279L117.527 34.216V23.176L120.279 20.392H125.815V14.856L128.951 11.72V37ZM125.815 34.216V20.776L123.383 23.176H120.695V34.216H125.815ZM153.505 34.216L150.721 37H142.817L140.065 34.216V17.672L142.817 14.888H150.721L153.505 17.672V19.976L150.337 23.176V17.672H143.233V34.216H150.337V31.88L153.505 28.712V34.216ZM168.887 25.928L165.719 29.096V23.176H161.015V37H157.847V20.392H161.015V22.792L163.319 20.392H166.135L168.887 23.176V25.928ZM183.315 37H180.147V34.632L177.779 37H174.611L171.859 34.216V28.712L174.611 25.928H179.827L177.203 28.68H174.995V34.216H180.147V23.176H171.443L173.811 20.392H180.563L183.315 23.176V37ZM198.707 14.888H191.987V22.376L193.971 20.392H197.459L194.707 23.176H191.987V37H188.819V14.888L191.603 12.104H195.891L198.707 14.888ZM207.036 20.392L204.252 23.176H202.268V34.216H206.204V37H201.884L199.1 34.216V23.176H195.164L197.948 20.392H199.1V18.056L202.268 14.888V20.392H207.036ZM218.785 23.176H210.881V25.928H215.233L218.017 28.712V34.216L215.233 37H207.713V34.216H214.849V28.712H210.497L207.713 25.928V23.176L210.497 20.392H215.969L218.785 23.176Z" fill="white"/>
</svg>
