<svg width="129" height="54" viewBox="0 0 129 54" fill="none" xmlns="http://www.w3.org/2000/svg">
<rect width="129" height="54" rx="20" fill="#233041"/>
<path d="M37.992 34.216L35.208 37H24.168V20.392L26.952 17.672H23.784V14.888H35.208L37.992 17.672V34.216ZM34.824 34.216V17.672H27.336V36.616L29.672 34.216H34.824ZM54.6693 37H45.9973L43.2453 34.216V23.176L45.9973 20.392H51.9173L54.6693 23.176V28.712L51.9173 31.464H46.7973L49.6133 28.712H51.5333V23.176H46.4133V34.216H54.6693V37ZM68.535 23.176H60.631V25.928H64.983L67.767 28.712V34.216L64.983 37H57.463V34.216H64.599V28.712H60.247L57.463 25.928V23.176L60.247 20.392H65.719L68.535 23.176ZM74.8583 17.672H71.6903V14.504H74.8583V17.672ZM74.8583 37H71.6903V22.824L74.8583 19.624V37ZM92.2818 20.392L89.5298 23.176H82.8098V34.216H87.9298V25.928H91.0978V42.536L88.3458 45.288H79.2578L81.9778 42.536H87.9298V34.568L84.7618 37H82.4258L79.6418 34.216V23.176L82.4258 20.392H92.2818ZM107.302 37H104.166V23.176H99.0458V37H95.8778V20.392H99.0458V22.792L101.382 20.392H104.55L107.302 23.176V37Z" fill="white"/>
</svg>
