<svg width="506" height="115" viewBox="0 0 506 115" fill="none" xmlns="http://www.w3.org/2000/svg">
<mask id="mask0_26_648" style="mask-type:alpha" maskUnits="userSpaceOnUse" x="0" y="0" width="506" height="115">
<rect width="506" height="115" fill="#FDBE88"/>
</mask>
<g mask="url(#mask0_26_648)">
<path d="M417.216 51.5381L399.903 151.623L364.54 170.446L355.515 143.371L417.216 51.5381Z" fill="#404065"/>
<path d="M409.525 62.846C406.259 21.3371 403.59 32.7152 402.888 23.0227C404.468 12.8386 405.311 2.37357 405.311 -8.26704C405.311 -15.8173 404.855 -23.2271 404.047 -30.5667C404.117 -32.2523 404.187 -33.9731 404.223 -35.729L403.45 -35.3427C390.351 -133.496 307.017 -209.21 206.089 -209.21C96.0659 -209.21 6.9024 -119.239 6.9024 -8.30215C6.9024 60.0015 40.7206 120.298 92.3434 156.61C119.911 175.995 143.826 198.54 173.57 215.326C192.148 225.792 211.603 234.852 231.795 241.805C247.949 247.354 265.262 255.677 282.751 254.869C291.109 254.483 299.081 250.655 306.947 248.056C317.412 244.579 324.225 243.561 331.038 234.395C334.865 229.268 338.658 224.106 342.345 218.873C352.951 203.878 362.994 188.462 372.23 172.588C390.843 140.667 412.51 101.089 409.525 62.846Z" fill="#CC8E76"/>
<path d="M254.095 61.8979C254.095 61.8979 249.214 83.6357 230.391 89.4653L173.009 88.6224C173.009 88.6224 168.584 88.6224 163.211 91.8181L172.798 79.2109C172.833 79.2109 232.287 91.0455 254.095 61.8979Z" fill="url(#paint0_linear_26_648)"/>
<path d="M324.646 43.1803C324.646 43.1803 337.394 53.1537 350.458 50.1336L378.447 31.1701C378.447 31.1701 380.483 29.3088 385.365 29.7302L371.528 23.3037C371.564 23.3037 352.776 43.2154 324.646 43.1803Z" fill="url(#paint1_linear_26_648)"/>
<path d="M161.736 31.6265L244.508 7.92212L248.652 13.9272L161.736 31.6265Z" fill="url(#paint2_linear_26_648)"/>
<path d="M328.615 86.9368L330.686 99.7196L328.79 116.646L341.222 98.947L328.615 86.9368Z" fill="#A86763"/>
<path d="M83.845 93.6793C83.845 93.6793 16.1032 -2.6482 16.8758 85.3915C17.6133 173.431 121.491 161.386 121.491 161.386L83.845 93.6793Z" fill="#CC8E76"/>
<path d="M383.784 43.0397C383.714 42.9343 383.609 42.829 383.539 42.7236C383.012 42.1266 382.204 41.5999 381.467 41.2136C382.31 41.1433 383.258 41.0028 383.96 40.6517C384.101 40.6165 384.206 40.5463 384.311 40.4761C385.224 39.8791 385.505 38.6149 384.873 37.7018C384.276 36.7887 383.012 36.5078 382.099 37.1399C381.993 37.2101 381.888 37.3155 381.783 37.3857C381.186 37.9125 380.659 38.7202 380.273 39.4577C380.202 38.6149 380.062 37.6667 379.711 36.9643C379.676 36.8239 379.605 36.7185 379.535 36.6131C378.938 35.7001 377.674 35.4192 376.761 36.0513C375.848 36.6483 375.567 37.9125 376.199 38.8256C376.269 38.9309 376.375 39.0363 376.445 39.1416C376.972 39.7386 377.779 40.2654 378.517 40.6517C377.674 40.7219 376.726 40.8624 376.023 41.2136C375.883 41.2487 375.778 41.3189 375.672 41.3891C374.759 41.9861 374.478 43.2504 375.11 44.1634C375.707 45.0765 376.972 45.3574 377.885 44.7253C377.99 44.6551 378.095 44.5497 378.201 44.4795C378.798 43.9527 379.325 43.145 379.711 42.4075C379.781 43.2504 379.922 44.1985 380.273 44.9009C380.308 45.0414 380.378 45.1467 380.448 45.2521C381.045 46.1651 382.31 46.4461 383.223 45.814C384.136 45.217 384.381 43.9878 383.784 43.0397Z" fill="#A4E6F8"/>
<path d="M438.286 51.538C438.286 51.538 490.225 44.7603 486.433 -6.40596C482.675 -57.5722 397.62 -61.3298 380.342 -91.4256L360.782 -171.95C360.782 -171.95 423.994 -74.8852 459.357 -56.0622C494.72 -37.2392 505.256 18.4221 432.281 31.9775L438.286 51.538Z" fill="#3F4065"/>
<path d="M119.208 -206.576L89.8501 -204.328C89.8501 -204.328 -54.6235 -141.117 -43.3508 27.0612C-43.3508 27.0612 11.9594 98.1743 -50.1285 128.656C-50.1285 128.656 -11.745 146.707 11.9594 130.904L23.2321 156.856L62.7393 185.09C62.7393 185.09 151.903 212.166 151.903 252.832C151.903 252.832 139.471 171.57 123.668 154.643L96.5927 99.3331C96.5927 99.3331 113.519 -6.75705 169.953 -15.8174L148.883 -14.6936C148.883 -14.6936 166.582 -29.759 192.148 -29.759L221.12 -45.5619L215.466 -34.6404C215.466 -34.6404 225.615 -44.4382 240.294 -40.6455C254.973 -36.8879 301.995 -59.8197 301.995 -59.8197L388.911 -20.3124L408.858 76.4013C408.858 76.4013 426.171 52.3107 426.171 47.8156C426.171 43.3206 440.464 68.8862 440.464 90.6942C440.464 90.6942 453.247 55.3308 429.929 -0.365646C406.611 -56.0621 430.666 -89.9154 356.182 -175.708C281.697 -261.5 141.789 -232.914 141.789 -232.914L119.208 -206.576Z" fill="url(#paint3_linear_26_648)"/>
<path d="M220.804 -58.3097C220.804 -58.3097 344.979 89.9216 470.63 -45.5269C470.63 -45.5269 404.398 25.9725 311.091 -89.9155C217.783 -205.803 146.284 -140.344 192.183 -29.724L220.804 -58.3097Z" fill="#516584"/>
<path d="M192.218 -29.724C192.218 -29.724 138.804 -81.6629 137.294 7.14944C135.573 109.622 168.9 171.184 220.066 147.866C220.066 147.866 176.415 176.451 139.542 136.593C139.542 136.593 149.339 175.714 188.46 189.269C227.581 202.824 236.607 212.587 239.627 234.43C239.627 234.43 226.071 193.799 171.147 205.072C171.147 205.072 156.855 208.092 143.299 204.335C143.299 204.335 148.181 219.014 160.612 224.668C160.612 224.668 44.7242 214.132 88.3753 18.4924C132.026 -177.147 192.218 -29.724 192.218 -29.724Z" fill="url(#paint4_linear_26_648)"/>
<path d="M363.802 63.5835C363.802 63.5835 277.273 72.6087 254.692 1.10933C232.111 -70.39 210.303 -83.1728 192.218 -29.759C192.218 -29.759 192.955 -92.2331 233.622 -86.9655C274.288 -81.6979 261.435 44.023 363.802 63.5835Z" fill="url(#paint5_linear_26_648)"/>
<path d="M384.1 -9.39081C384.1 -9.39081 363.767 96.9803 411.949 105.76C453.352 113.275 452.58 170.481 420.236 176.486C420.236 176.486 474.423 172.729 476.67 120.053C476.67 120.053 492.473 121.563 493.211 138.103C493.211 138.103 513.544 105.76 444.292 80.8964C375.075 56.0683 420.201 -36.5016 375.075 -86.1578C329.949 -135.814 223.824 -291.596 147.057 -132.056L192.218 -29.7239L214.799 -111.758L346.49 -4.89577L384.1 -9.39081Z" fill="#516584"/>
</g>
<defs>
<linearGradient id="paint0_linear_26_648" x1="254.113" y1="76.8563" x2="163.246" y2="76.8563" gradientUnits="userSpaceOnUse">
<stop stop-color="#54314A"/>
<stop offset="0.2793" stop-color="#3F4065"/>
<stop offset="1" stop-color="#54314A"/>
</linearGradient>
<linearGradient id="paint1_linear_26_648" x1="334.908" y1="54.5792" x2="375.194" y2="18.3944" gradientUnits="userSpaceOnUse">
<stop stop-color="#54314A"/>
<stop offset="0.2793" stop-color="#3F4065"/>
<stop offset="1" stop-color="#54314A"/>
</linearGradient>
<linearGradient id="paint2_linear_26_648" x1="248.657" y1="19.7588" x2="161.741" y2="19.7588" gradientUnits="userSpaceOnUse">
<stop stop-color="#54314A"/>
<stop offset="0.2793" stop-color="#3F4065"/>
<stop offset="1" stop-color="#54314A"/>
</linearGradient>
<linearGradient id="paint3_linear_26_648" x1="223.131" y1="189.272" x2="109.124" y2="-255.467" gradientUnits="userSpaceOnUse">
<stop offset="0.2793" stop-color="#3F4065"/>
<stop offset="0.567" stop-color="#516584"/>
</linearGradient>
<linearGradient id="paint4_linear_26_648" x1="159.085" y1="33.4922" x2="159.085" y2="-91.4259" gradientUnits="userSpaceOnUse">
<stop offset="0.4106" stop-color="#5C7191"/>
<stop offset="0.8743" stop-color="#516584"/>
</linearGradient>
<linearGradient id="paint5_linear_26_648" x1="278.005" y1="33.4923" x2="278.005" y2="-91.4258" gradientUnits="userSpaceOnUse">
<stop offset="0.4106" stop-color="#5C7191"/>
<stop offset="0.8743" stop-color="#516584"/>
</linearGradient>
</defs>
</svg>
