<svg width="245" height="54" viewBox="0 0 245 54" fill="none" xmlns="http://www.w3.org/2000/svg">
<rect width="245" height="54" rx="20" fill="#233041"/>
<path d="M42.344 36.968H39.176V19.656L41.16 17.704H38.568L34.312 25.928H32.008L27.912 17.704H25.352L27.336 19.656V36.968H24.168V14.888H29.832L33.128 22.152H33.512L36.872 14.888H42.344V36.968ZM59.388 34.216L56.636 37H50.716L47.964 34.216V23.176L50.716 20.392H56.636L59.388 23.176V34.216ZM56.252 34.216V23.176H51.132V34.216H56.252ZM72.7238 20.392L69.9398 23.176H67.9558V34.216H71.8918V37H67.5718L64.7878 34.216V23.176H60.8517L63.6358 20.392H64.7878V18.056L67.9558 14.888V20.392H72.7238ZM78.2645 17.672H75.0965V14.504H78.2645V17.672ZM78.2645 37H75.0965V22.824L78.2645 19.624V37ZM94.888 34.216L92.136 37H86.216L83.464 34.216V23.176L86.216 20.392H92.136L94.888 23.176V34.216ZM91.752 34.216V23.176H86.632V34.216H91.752ZM111.552 37H108.416V23.176H103.296V37H100.128V20.392H103.296V22.792L105.632 20.392H108.8L111.552 23.176V37ZM137.032 17.672H125.608V34.216H133.096V25.928H127.944L130.728 23.176H136.264V37H133.096V34.632L130.728 37H125.192L122.44 34.216V17.672L125.192 14.888H134.248L137.032 17.672ZM152.637 25.928L149.469 29.096V23.176H144.765V37H141.597V20.392H144.765V22.792L147.069 20.392H149.885L152.637 23.176V25.928ZM167.065 37H163.897V34.632L161.529 37H158.361L155.609 34.216V28.712L158.361 25.928H163.577L160.953 28.68H158.745V34.216H163.897V23.176H155.193L157.561 20.392H164.313L167.065 23.176V37ZM183.929 34.216L181.209 37H175.641V45.288H172.473V20.392H175.641V22.792L177.945 20.392H181.209L183.929 23.176V34.216ZM180.761 34.216V23.176H175.641V36.616L177.945 34.216H180.761ZM200.807 37H197.639V23.176H192.487V37H189.319V14.536L192.487 11.4V22.792L194.823 20.392H198.023L200.807 23.176V37ZM209.327 17.672H206.159V14.504H209.327V17.672ZM209.327 37H206.159V22.824L209.327 19.624V37ZM225.183 23.176L222.015 26.376V23.176H217.695V34.216H224.799V37H217.279L214.527 34.216V23.176L217.279 20.392H222.399L225.183 23.176Z" fill="white"/>
</svg>
