<svg width="148" height="54" viewBox="0 0 148 54" fill="none" xmlns="http://www.w3.org/2000/svg">
<rect width="148" height="54" rx="20" fill="#233041"/>
<path d="M36.992 37H33.824L33.888 34.76L27.552 28.392L29.696 25.928H33.824V17.672H26.336V37H23.168V20.392L25.952 17.672H22.784V14.888H34.208L36.992 17.672V25.544L34.208 28.328H31.616V28.744L36.992 34.056V37ZM53.2005 37H44.5285L41.7765 34.216V23.176L44.5285 20.392H50.4485L53.2005 23.176V28.712L50.4485 31.464H45.3285L48.1445 28.712H50.0645V23.176H44.9445V34.216H53.2005V37ZM68.3463 37H65.1783V34.632L62.8103 37H59.6423L56.8903 34.216V28.712L59.6423 25.928H64.8583L62.2343 28.68H60.0263V34.216H65.1783V23.176H56.4743L58.8423 20.392H65.5943L68.3463 23.176V37ZM84.7943 37H81.6583V34.632L79.3542 37H76.1223L73.3703 34.216V23.176L76.1223 20.392H81.6583V14.856L84.7943 11.72V37ZM81.6583 34.216V20.776L79.2263 23.176H76.5383V34.216H81.6583ZM93.5458 17.672H90.3778V14.504H93.5458V17.672ZM93.5458 37H90.3778V22.824L93.5458 19.624V37ZM110.489 37H107.353V23.176H102.233V37H99.0653V20.392H102.233V22.792L104.569 20.392H107.737L110.489 23.176V37ZM127.751 20.392L124.999 23.176H118.279V34.216H123.399V25.928H126.567V42.536L123.815 45.288H114.727L117.447 42.536H123.399V34.568L120.231 37H117.895L115.111 34.216V23.176L117.895 20.392H127.751Z" fill="white"/>
</svg>
