<svg width="174" height="54" viewBox="0 0 174 54" fill="none" xmlns="http://www.w3.org/2000/svg">
<rect width="174" height="54" rx="20" fill="#233041"/>
<path d="M37.224 17.672H26.344V23.176H33.672L36.392 25.928V34.216L33.672 37H25.928L23.176 34.216V32.008L26.344 28.968V34.216H33.224V25.928H25.928L23.176 23.176V17.672L25.928 14.888H34.44L37.224 17.672ZM44.8933 27.432L52.7973 19.624V23.016L50.0133 25.768L52.7973 28.584V37H49.6613V27.912H44.8933V37H41.7253V14.504L44.8933 11.336V27.432ZM68.4505 37H59.7785L57.0265 34.216V23.176L59.7785 20.392H65.6985L68.4505 23.176V28.712L65.6985 31.464H60.5785L63.3945 28.712H65.3145V23.176H60.1945V34.216H68.4505V37ZM81.0363 20.392L78.2523 23.176H76.2683V34.216H80.2043V37H75.8843L73.1003 34.216V23.176H69.1642L71.9483 20.392H73.1003V18.056L76.2683 14.888V20.392H81.0363ZM93.745 23.176L90.577 26.376V23.176H86.257V34.216H93.361V37H85.841L83.089 34.216V23.176L85.841 20.392H90.961L93.745 23.176ZM108.495 37H105.327V23.176H100.175V37H97.0065V14.536L100.175 11.4V22.792L102.51 20.392H105.711L108.495 23.176V37ZM117.015 17.672H113.847V14.504H117.015V17.672ZM117.015 37H113.847V22.824L117.015 19.624V37ZM133.958 37H130.822V23.176H125.702V37H122.534V20.392H125.702V22.792L128.038 20.392H131.206L133.958 23.176V37ZM151.219 20.392L148.467 23.176H141.747V34.216H146.867V25.928H150.035V42.536L147.283 45.288H138.195L140.915 42.536H146.867V34.568L143.699 37H141.363L138.579 34.216V23.176L141.363 20.392H151.219Z" fill="white"/>
</svg>
