<svg width="208" height="54" viewBox="0 0 208 54" fill="none" xmlns="http://www.w3.org/2000/svg">
<rect width="208" height="54" rx="20" fill="#233041"/>
<path d="M36 29.896L30.784 37H27.232L22.176 29.896V14.888H25.408V29.32L28.672 34.312H29.504L32.832 29.32V14.888H36V29.896ZM44.1395 17.672H40.9715V14.504H44.1395V17.672ZM44.1395 37H40.9715V22.824L44.1395 19.624V37ZM60.763 37H57.627V34.632L55.323 37H52.091L49.339 34.216V23.176L52.091 20.392H57.627V14.856L60.763 11.72V37ZM57.627 34.216V20.776L55.195 23.176H52.507V34.216H57.627ZM77.4505 37H68.7785L66.0265 34.216V23.176L68.7785 20.392H74.6985L77.4505 23.176V28.712L74.6985 31.464H69.5785L72.3945 28.712H74.3145V23.176H69.1945V34.216H77.4505V37ZM93.0443 34.216L90.2923 37H84.3723L81.6203 34.216V23.176L84.3723 20.392H90.2923L93.0443 23.176V34.216ZM89.9083 34.216V23.176H84.7883V34.216H89.9083ZM118.407 17.672H106.983V34.216H114.471V25.928H109.319L112.103 23.176H117.639V37H114.471V34.632L112.103 37H106.567L103.815 34.216V17.672L106.567 14.888H115.623L118.407 17.672ZM133.628 37H130.46V34.632L128.092 37H124.924L122.172 34.216V28.712L124.924 25.928H130.14L127.516 28.68H125.308V34.216H130.46V23.176H121.756L124.124 20.392H130.876L133.628 23.176V37ZM157.916 37H154.748V23.176H150.012V37H146.844V23.176H142.14V37H138.972V20.392H142.14V22.792L144.476 20.392H147.644L149.596 22.408L151.58 20.392H155.132L157.916 23.176V37ZM174.357 37H165.685L162.933 34.216V23.176L165.685 20.392H171.605L174.357 23.176V28.712L171.605 31.464H166.485L169.301 28.712H171.221V23.176H166.101V34.216H174.357V37ZM188.223 23.176H180.319V25.928H184.671L187.455 28.712V34.216L184.671 37H177.151V34.216H184.286V28.712H179.935L177.151 25.928V23.176L179.935 20.392H185.407L188.223 23.176Z" fill="white"/>
</svg>
